<?xml version="1.0" encoding="utf-8"?>
<!-- Generator: Adobe Illustrator 17.1.0, SVG Export Plug-In . SVG Version: 6.00 Build 0)  -->
<!DOCTYPE svg PUBLIC "-//W3C//DTD SVG 1.1//EN" "http://www.w3.org/Graphics/SVG/1.1/DTD/svg11.dtd">
<svg version="1.1" id="Layer_2" xmlns="http://www.w3.org/2000/svg" xmlns:xlink="http://www.w3.org/1999/xlink" x="0px" y="0px"
	 viewBox="0 0 283.5 237.5" width="345.497353177" height="289.437817918" enable-background="new 0 0 283.5 237.5" xml:space="preserve">
<path fill="#7C1315" d="M214.4,80c-2.2-5.2-8.2-7.7-13.4-5.5l-29.6,12.2c-0.5-0.8-1-1.5-1.5-2.3l22.6-22.6c4-4,4-10.5,0-14.5
	c-4-4-10.5-4-14.5,0L155.4,70c-0.7-0.5-1.5-1-2.3-1.5L165.3,39c2.2-5.2-0.3-11.2-5.5-13.4s-11.2,0.3-13.4,5.5l-12.2,29.6
	c-0.9-0.2-1.8-0.4-2.7-0.5V28.2c0-5.7-4.6-10.3-10.3-10.3s-10.3,4.6-10.3,10.3v32c-0.9,0.2-1.8,0.3-2.7,0.5L96,31.3
	c-2.2-5.2-8.2-7.7-13.4-5.5c-5.2,2.2-7.7,8.2-5.5,13.4l12.2,29.6c-0.8,0.5-1.5,1-2.3,1.5L64.5,47.6c-4-4-10.5-4-14.5,0
	c-4,4-4,10.5,0,14.5l22.6,22.6c-0.5,0.7-1,1.5-1.5,2.3L41.6,74.8c-5.2-2.2-11.2,0.3-13.4,5.5c-2.2,5.2,0.3,11.2,5.5,13.4L63.3,106
	c-0.2,0.9-0.4,1.8-0.5,2.7H30.8c-5.7,0-10.3,4.6-10.3,10.3s4.6,10.3,10.3,10.3h32c0.2,0.9,0.3,1.8,0.5,2.7l-29.5,12.2
	c-5.2,2.2-7.7,8.2-5.5,13.4c2.2,5.2,8.2,7.7,13.4,5.5l29.6-12.2c0.5,0.8,1,1.5,1.5,2.3l-22.6,22.6c-4,4-4,10.5,0,14.5
	c4,4,10.5,4,14.5,0l22.6-22.6c0.7,0.5,1.5,1,2.3,1.5l-12.2,29.5c-2.2,5.2,0.3,11.2,5.5,13.4c5.2,2.2,11.2-0.3,13.4-5.5l12.2-29.6
	c0.9,0.2,1.8,0.4,2.7,0.5v31.9c0,5.7,4.6,10.3,10.3,10.3s10.3-4.6,10.3-10.3v-32c0.9-0.2,1.8-0.3,2.7-0.5l12.2,29.5
	c2.2,5.2,8.2,7.7,13.4,5.5c5.2-2.2,7.7-8.2,5.5-13.4l-12.2-29.6c16.5-10.6,27.4-29,27.4-50.1c0-4.5-0.5-8.9-1.5-13.1l29.5-12.2
	C214.1,91.3,216.6,85.3,214.4,80z"/>
<g id="Layer_4">
	<circle fill="#7C1315" cx="81.9" cy="23.8" r="10.2"/>
	<circle fill="#7C1315" cx="26.3" cy="79.5" r="10.2"/>
	<circle fill="#7C1315" cx="26.4" cy="158.3" r="10.2"/>
	<circle fill="#7C1315" cx="82.2" cy="213.8" r="10.2"/>
	<circle fill="#7C1315" cx="160.9" cy="213.7" r="10.2"/>
	<circle fill="#7C1315" cx="216.3" cy="79.3" r="10.2"/>
	<circle fill="#7C1315" cx="160.6" cy="23.7" r="10.2"/>
</g>
<radialGradient id="SVGID_1_" cx="117.6005" cy="118.7585" r="92.6728" gradientUnits="userSpaceOnUse">
	<stop  offset="0.4828" style="stop-color:#B63725"/>
	<stop  offset="1" style="stop-color:#C4922C"/>
</radialGradient>
<path fill="url(#SVGID_1_)" d="M208.2,82.9c-0.5-1.3-2-1.9-3.3-1.4l-35.2,14.6c-2.1-4.4-4.8-8.5-8-12.2l26.4-26.4
	c1.6-1.6,1.6-4.1,0-5.7c-1.6-1.6-4.1-1.6-5.7,0l-26.5,26.5c-3.6-3-7.5-5.6-11.8-7.6l14.6-35.2c0.5-1.3-0.1-2.8-1.4-3.3
	c-1.3-0.5-2.8,0.1-3.3,1.4l-14.6,35.2c-4.5-1.6-9.3-2.6-14.3-2.9V28.2c0-2.2-1.8-4-4-4c-2.2,0-4,1.8-4,4v37.7
	c-4.8,0.4-9.4,1.4-13.7,3L88.9,33.8c-0.5-1.3-2-1.9-3.3-1.4c-1.3,0.5-1.9,2-1.4,3.3l14.6,35.2c-4.4,2.1-8.4,4.7-12,7.9L60.1,52
	c-1.6-1.6-4.1-1.6-5.7,0c-1.6,1.6-1.6,4.1,0,5.7l26.7,26.7c-3.1,3.6-5.7,7.6-7.7,12L38.2,81.9c-1.3-0.5-2.8,0.1-3.3,1.4
	c-0.5,1.3,0.1,2.8,1.4,3.3l35.2,14.6c-1.6,4.4-2.6,9-2.9,13.8H30.8c-2.2,0-4,1.8-4,4c0,2.2,1.8,4,4,4h37.7c0.4,4.9,1.4,9.7,3,14.2
	l-35.2,14.6c-1.3,0.5-1.9,2-1.4,3.3c0.4,1,1.3,1.6,2.3,1.6c0.3,0,0.6-0.1,1-0.2l35.2-14.6c2,4.3,4.6,8.2,7.6,11.7l-26.5,26.5
	c-1.6,1.6-1.6,4.1,0,5.7c1.6,1.6,4.1,1.6,5.7,0l26.5-26.5c3.7,3.2,7.8,5.9,12.3,8l-14.6,35.2c-0.5,1.3,0.1,2.8,1.4,3.3
	c0.3,0.1,0.6,0.2,1,0.2c1,0,1.9-0.6,2.3-1.6l14.6-35.2c4.4,1.5,9,2.5,13.8,2.9v37.3c0,2.2,1.8,4,4,4c2.2,0,4-1.8,4-4V172
	c5-0.4,9.7-1.4,14.2-3l14.6,35.2c0.4,1,1.3,1.6,2.3,1.6c0.3,0,0.6-0.1,1-0.2c1.3-0.5,1.9-2,1.4-3.3L144.5,167
	c18-8.5,30.4-26.9,30.4-48.1c0-6.4-1.1-12.5-3.2-18.2l35.2-14.6C208.1,85.7,208.7,84.2,208.2,82.9z"/>
<radialGradient id="SVGID_2_" cx="121.3709" cy="118.7585" r="40.9182" gradientUnits="userSpaceOnUse">
	<stop  offset="0.3941" style="stop-color:#EF4823"/>
	<stop  offset="1" style="stop-color:#E7A523"/>
</radialGradient>
<circle fill="url(#SVGID_2_)" cx="121.4" cy="118.8" r="40.9"/>
<g id="Layer_3">
	<circle fill="#C4922C" cx="81.9" cy="23.8" r="4.1"/>
	<circle fill="#C4922C" cx="26.3" cy="79.5" r="4.1"/>
	<circle fill="#C4922C" cx="26.4" cy="158.3" r="4.1"/>
	<circle fill="#C4922C" cx="82.2" cy="213.8" r="4.1"/>
	<circle fill="#C4922C" cx="160.9" cy="213.7" r="4.1"/>
	<circle fill="#C4922C" cx="216.3" cy="79.3" r="4.1"/>
	<circle fill="#C4922C" cx="160.6" cy="23.7" r="4.1"/>
</g>
<path fill="#7C1315" d="M257.7,103.7c-7.7-2.9-16.2,1.1-19.1,8.8l-14.1,38.1l-15.2-36.9c-2.1-5-7-7.8-12.4-8.2
	c-0.4,0-0.9-0.1-1.4-0.1h-70c-7.7,0-14,6.3-14,14c0,7.7,6.3,14,14,14h18.1v57.4c0,8.5,6.9,15.4,15.4,15.4c8.5,0,15.4-6.9,15.4-15.4
	v-57.4h10.2l26.8,63.7c2.3,5.6,7.7,9.2,13.7,9.2c0.1,0,0.2,0,0.3,0c6.1-0.1,11.5-4,13.7-9.7l27.3-73.6
	C269.3,115.1,265.4,106.6,257.7,103.7z"/>
<linearGradient id="SVGID_3_" gradientUnits="userSpaceOnUse" x1="189.4151" y1="111.0486" x2="189.4151" y2="197.9069">
	<stop  offset="0" style="stop-color:#F6881F"/>
	<stop  offset="1" style="stop-color:#B73825"/>
</linearGradient>
<path fill="url(#SVGID_3_)" d="M254.8,111.5c-3.4-1.3-7.1,0.5-8.4,3.9l-21.5,58l-23.3-56.6c-1-2.3-3-3.3-5.9-3.3c0,0-0.1,0-0.1,0
	h-70c-3.2,0-5.8,2.6-5.8,5.8s2.6,5.8,5.8,5.8h26.2v65.6c0,4,3.3,7.3,7.3,7.3s7.3-3.3,7.3-7.3V125h23.9l28.9,68.7c1,2.5,3.4,4,6,4
	c0,0,0.1,0,0.1,0c2.7,0,5.1-1.7,6-4.3l27.3-73.6C259.9,116.5,258.2,112.7,254.8,111.5z"/>
</svg>
